<?xml version="1.0" encoding="UTF-8" standalone="no"?><svg xmlns="http://www.w3.org/2000/svg" xmlns:xlink="http://www.w3.org/1999/xlink" clip-rule="evenodd" stroke-miterlimit="10" viewBox="0 0 1024 768"><desc>SVG generated by Keynote</desc><defs></defs><g transform="matrix(1.00, 0.00, -0.00, -1.00, 0.0, 768.0)"><path d="M 0.0 768.0 L 1024.0 768.0 L 1024.0 0.0 L 0.0 0.0 Z M 0.0 768.0 " fill="#FEFFFF"></path><text xml:space="preserve" font-family="Helvetica-Light,Helvetica" font-size="79.2" fill="#000000" transform="matrix(1.00, 0.00, -0.00, -1.00, 105.7, 399.1)">P</text><text xml:space="preserve" font-family="Helvetica-Light,Helvetica" font-size="79.2" fill="#000000" transform="matrix(1.00, 0.00, -0.00, -1.00, 154.1, 399.1)">r</text><text xml:space="preserve" font-family="Helvetica-Light,Helvetica" font-size="79.2" fill="#000000" transform="matrix(1.00, 0.00, -0.00, -1.00, 179.0, 399.1)">o</text><text xml:space="preserve" font-family="Helvetica-Light,Helvetica" font-size="79.2" fill="#000000" transform="matrix(1.00, 0.00, -0.00, -1.00, 223.1, 399.1)">g</text><text xml:space="preserve" font-family="Helvetica-Light,Helvetica" font-size="79.2" fill="#000000" transform="matrix(1.00, 0.00, -0.00, -1.00, 271.5, 399.1)">r</text><text xml:space="preserve" font-family="Helvetica-Light,Helvetica" font-size="79.2" fill="#000000" transform="matrix(1.00, 0.00, -0.00, -1.00, 297.8, 399.1)">a</text><text xml:space="preserve" font-family="Helvetica-Light,Helvetica" font-size="79.2" fill="#000000" transform="matrix(1.00, 0.00, -0.00, -1.00, 341.9, 399.1)">m</text><text xml:space="preserve" font-family="Helvetica-Light,Helvetica" font-size="79.2" fill="#000000" transform="matrix(1.00, 0.00, -0.00, -1.00, 407.9, 399.1)">m</text><text xml:space="preserve" font-family="Helvetica-Light,Helvetica" font-size="79.2" fill="#000000" transform="matrix(1.00, 0.00, -0.00, -1.00, 473.8, 399.1)">i</text><text xml:space="preserve" font-family="Helvetica-Light,Helvetica" font-size="79.2" fill="#000000" transform="matrix(1.00, 0.00, -0.00, -1.00, 491.4, 399.1)">n</text><text xml:space="preserve" font-family="Helvetica-Light,Helvetica" font-size="79.2" fill="#000000" transform="matrix(1.00, 0.00, -0.00, -1.00, 535.4, 399.1)">g</text><text xml:space="preserve" font-family="Helvetica-Light,Helvetica" font-size="79.2" fill="#000000" transform="matrix(1.00, 0.00, -0.00, -1.00, 583.8, 399.1)"> </text><text xml:space="preserve" font-family="Helvetica-Light,Helvetica" font-size="79.2" fill="#000000" transform="matrix(1.00, 0.00, -0.00, -1.00, 605.9, 399.1)">a</text><text xml:space="preserve" font-family="Helvetica-Light,Helvetica" font-size="79.2" fill="#000000" transform="matrix(1.00, 0.00, -0.00, -1.00, 649.9, 399.1)">t</text><text xml:space="preserve" font-family="Helvetica-Light,Helvetica" font-size="79.2" fill="#000000" transform="matrix(1.00, 0.00, -0.00, -1.00, 671.9, 399.1)"> </text><text xml:space="preserve" font-family="Helvetica-Light,Helvetica" font-size="79.2" fill="#000000" transform="matrix(1.00, 0.00, -0.00, -1.00, 693.9, 399.1)">I</text><text xml:space="preserve" font-family="Helvetica-Light,Helvetica" font-size="79.2" fill="#000000" transform="matrix(1.00, 0.00, -0.00, -1.00, 715.9, 399.1)">D</text><text xml:space="preserve" font-family="Helvetica-Light,Helvetica" font-size="79.2" fill="#000000" transform="matrix(1.00, 0.00, -0.00, -1.00, 773.1, 399.1)">E</text><text xml:space="preserve" font-family="Helvetica-Light,Helvetica" font-size="79.2" fill="#000000" transform="matrix(1.00, 0.00, -0.00, -1.00, 821.5, 399.1)">X</text><text xml:space="preserve" font-family="Helvetica-Light,Helvetica" font-size="79.2" fill="#000000" transform="matrix(1.00, 0.00, -0.00, -1.00, 869.9, 399.1)">X</text><text xml:space="preserve" font-family="Helvetica-Light,Helvetica" font-size="36.0" fill="#000000" transform="matrix(1.00, 0.00, -0.00, -1.00, 368.9, 234.8)">B</text><text xml:space="preserve" font-family="Helvetica-Light,Helvetica" font-size="36.0" fill="#000000" transform="matrix(1.00, 0.00, -0.00, -1.00, 392.9, 234.8)">r</text><text xml:space="preserve" font-family="Helvetica-Light,Helvetica" font-size="36.0" fill="#000000" transform="matrix(1.00, 0.00, -0.00, -1.00, 404.9, 234.8)">a</text><text xml:space="preserve" font-family="Helvetica-Light,Helvetica" font-size="36.0" fill="#000000" transform="matrix(1.00, 0.00, -0.00, -1.00, 425.0, 234.8)">n</text><text xml:space="preserve" font-family="Helvetica-Light,Helvetica" font-size="36.0" fill="#000000" transform="matrix(1.00, 0.00, -0.00, -1.00, 445.0, 234.8)">d</text><text xml:space="preserve" font-family="Helvetica-Light,Helvetica" font-size="36.0" fill="#000000" transform="matrix(1.00, 0.00, -0.00, -1.00, 467.0, 234.8)">o</text><text xml:space="preserve" font-family="Helvetica-Light,Helvetica" font-size="36.0" fill="#000000" transform="matrix(1.00, 0.00, -0.00, -1.00, 487.0, 234.8)">n</text><text xml:space="preserve" font-family="Helvetica-Light,Helvetica" font-size="36.0" fill="#000000" transform="matrix(1.00, 0.00, -0.00, -1.00, 507.0, 234.8)"> </text><text xml:space="preserve" font-family="Helvetica-Light,Helvetica" font-size="36.0" fill="#000000" transform="matrix(1.00, 0.00, -0.00, -1.00, 517.0, 234.8)">A</text><text xml:space="preserve" font-family="Helvetica-Light,Helvetica" font-size="36.0" fill="#000000" transform="matrix(1.00, 0.00, -0.00, -1.00, 541.0, 234.8)">t</text><text xml:space="preserve" font-family="Helvetica-Light,Helvetica" font-size="36.0" fill="#000000" transform="matrix(1.00, 0.00, -0.00, -1.00, 551.0, 234.8)">k</text><text xml:space="preserve" font-family="Helvetica-Light,Helvetica" font-size="36.0" fill="#000000" transform="matrix(1.00, 0.00, -0.00, -1.00, 569.0, 234.8)">i</text><text xml:space="preserve" font-family="Helvetica-Light,Helvetica" font-size="36.0" fill="#000000" transform="matrix(1.00, 0.00, -0.00, -1.00, 577.0, 234.8)">n</text><text xml:space="preserve" font-family="Helvetica-Light,Helvetica" font-size="36.0" fill="#000000" transform="matrix(1.00, 0.00, -0.00, -1.00, 597.0, 234.8)">s</text><text xml:space="preserve" font-family="Helvetica-Light,Helvetica" font-size="36.0" fill="#000000" transform="matrix(1.00, 0.00, -0.00, -1.00, 615.0, 234.8)">o</text><text xml:space="preserve" font-family="Helvetica-Light,Helvetica" font-size="36.0" fill="#000000" transform="matrix(1.00, 0.00, -0.00, -1.00, 635.0, 234.8)">n</text><text xml:space="preserve" font-family="Helvetica-Light,Helvetica" font-size="36.0" fill="#000000" transform="matrix(1.00, 0.00, -0.00, -1.00, 655.1, 234.8)"> </text><text xml:space="preserve" font-family="Helvetica-Light,Helvetica" font-size="36.0" fill="#000000" transform="matrix(1.00, 0.00, -0.00, -1.00, 355.0, 191.8)">I</text><text xml:space="preserve" font-family="Helvetica-Light,Helvetica" font-size="36.0" fill="#000000" transform="matrix(1.00, 0.00, -0.00, -1.00, 365.0, 191.8)">D</text><text xml:space="preserve" font-family="Helvetica-Light,Helvetica" font-size="36.0" fill="#000000" transform="matrix(1.00, 0.00, -0.00, -1.00, 391.0, 191.8)">E</text><text xml:space="preserve" font-family="Helvetica-Light,Helvetica" font-size="36.0" fill="#000000" transform="matrix(1.00, 0.00, -0.00, -1.00, 413.0, 191.8)">X</text><text xml:space="preserve" font-family="Helvetica-Light,Helvetica" font-size="36.0" fill="#000000" transform="matrix(1.00, 0.00, -0.00, -1.00, 435.0, 191.8)">X</text><text xml:space="preserve" font-family="Helvetica-Light,Helvetica" font-size="36.0" fill="#000000" transform="matrix(1.00, 0.00, -0.00, -1.00, 457.0, 191.8)"> </text><text xml:space="preserve" font-family="Helvetica-Light,Helvetica" font-size="36.0" fill="#000000" transform="matrix(1.00, 0.00, -0.00, -1.00, 467.0, 191.8)">L</text><text xml:space="preserve" font-family="Helvetica-Light,Helvetica" font-size="36.0" fill="#000000" transform="matrix(1.00, 0.00, -0.00, -1.00, 487.0, 191.8)">a</text><text xml:space="preserve" font-family="Helvetica-Light,Helvetica" font-size="36.0" fill="#000000" transform="matrix(1.00, 0.00, -0.00, -1.00, 507.0, 191.8)">b</text><text xml:space="preserve" font-family="Helvetica-Light,Helvetica" font-size="36.0" fill="#000000" transform="matrix(1.00, 0.00, -0.00, -1.00, 529.0, 191.8)">o</text><text xml:space="preserve" font-family="Helvetica-Light,Helvetica" font-size="36.0" fill="#000000" transform="matrix(1.00, 0.00, -0.00, -1.00, 549.0, 191.8)">r</text><text xml:space="preserve" font-family="Helvetica-Light,Helvetica" font-size="36.0" fill="#000000" transform="matrix(1.00, 0.00, -0.00, -1.00, 561.0, 191.8)">a</text><text xml:space="preserve" font-family="Helvetica-Light,Helvetica" font-size="36.0" fill="#000000" transform="matrix(1.00, 0.00, -0.00, -1.00, 581.0, 191.8)">t</text><text xml:space="preserve" font-family="Helvetica-Light,Helvetica" font-size="36.0" fill="#000000" transform="matrix(1.00, 0.00, -0.00, -1.00, 591.0, 191.8)">o</text><text xml:space="preserve" font-family="Helvetica-Light,Helvetica" font-size="36.0" fill="#000000" transform="matrix(1.00, 0.00, -0.00, -1.00, 611.0, 191.8)">r</text><text xml:space="preserve" font-family="Helvetica-Light,Helvetica" font-size="36.0" fill="#000000" transform="matrix(1.00, 0.00, -0.00, -1.00, 623.0, 191.8)">i</text><text xml:space="preserve" font-family="Helvetica-Light,Helvetica" font-size="36.0" fill="#000000" transform="matrix(1.00, 0.00, -0.00, -1.00, 631.0, 191.8)">e</text><text xml:space="preserve" font-family="Helvetica-Light,Helvetica" font-size="36.0" fill="#000000" transform="matrix(1.00, 0.00, -0.00, -1.00, 651.0, 191.8)">s</text></g></svg>