<?xml version="1.0" encoding="UTF-8" standalone="no"?><svg xmlns="http://www.w3.org/2000/svg" xmlns:xlink="http://www.w3.org/1999/xlink" clip-rule="evenodd" stroke-miterlimit="10" viewBox="0 0 1024 768"><desc>SVG generated by Keynote</desc><defs></defs><g transform="matrix(1.00, 0.00, -0.00, -1.00, 0.0, 768.0)"><path d="M 0.0 768.0 L 1024.0 768.0 L 1024.0 0.0 L 0.0 0.0 Z M 0.0 768.0 " fill="#FEFFFF"></path><g><clipPath id="clip0x7f7f6ab16f00"><path d="M 529.0 718.0 L 949.0 718.0 L 949.0 70.0 L 529.0 70.0 Z M 529.0 718.0 "></path></clipPath><g clip-path="url(#clip0x7f7f6ab16f00)"><image xlink:href="../../5AFCDCF3-4DC9-448B-ACCC-D8922AE4CE0C/assets/DB65C4A59A3D087CE8F9B559D16327D3.jpeg" width="1490.00" height="1289.00" transform="matrix(0.36, 0.00, -0.00, -0.36, 474.0, 624.0)"></image></g></g><text xml:space="preserve" font-family="Helvetica-Light,Helvetica" font-size="41.0" fill="#000000" transform="matrix(1.00, 0.00, -0.00, -1.00, 126.5, 545.4)">W</text><text xml:space="preserve" font-family="Helvetica-Light,Helvetica" font-size="41.0" fill="#000000" transform="matrix(1.00, 0.00, -0.00, -1.00, 163.0, 545.4)">h</text><text xml:space="preserve" font-family="Helvetica-Light,Helvetica" font-size="41.0" fill="#000000" transform="matrix(1.00, 0.00, -0.00, -1.00, 185.8, 545.4)">a</text><text xml:space="preserve" font-family="Helvetica-Light,Helvetica" font-size="41.0" fill="#000000" transform="matrix(1.00, 0.00, -0.00, -1.00, 208.6, 545.4)">t</text><text xml:space="preserve" font-family="Helvetica-Light,Helvetica" font-size="41.0" fill="#000000" transform="matrix(1.00, 0.00, -0.00, -1.00, 220.0, 545.4)"> </text><text xml:space="preserve" font-family="Helvetica-Light,Helvetica" font-size="41.0" fill="#000000" transform="matrix(1.00, 0.00, -0.00, -1.00, 231.4, 545.4)">I</text><text xml:space="preserve" font-family="Helvetica-Light,Helvetica" font-size="41.0" fill="#000000" transform="matrix(1.00, 0.00, -0.00, -1.00, 242.8, 545.4)">D</text><text xml:space="preserve" font-family="Helvetica-Light,Helvetica" font-size="41.0" fill="#000000" transform="matrix(1.00, 0.00, -0.00, -1.00, 272.4, 545.4)">E</text><text xml:space="preserve" font-family="Helvetica-Light,Helvetica" font-size="41.0" fill="#000000" transform="matrix(1.00, 0.00, -0.00, -1.00, 297.4, 545.4)">X</text><text xml:space="preserve" font-family="Helvetica-Light,Helvetica" font-size="41.0" fill="#000000" transform="matrix(1.00, 0.00, -0.00, -1.00, 322.5, 545.4)">X</text><text xml:space="preserve" font-family="Helvetica-Light,Helvetica" font-size="41.0" fill="#000000" transform="matrix(1.00, 0.00, -0.00, -1.00, 347.5, 545.4)"> </text><text xml:space="preserve" font-family="Helvetica-Light,Helvetica" font-size="41.0" fill="#000000" transform="matrix(1.00, 0.00, -0.00, -1.00, 358.9, 545.4)">d</text><text xml:space="preserve" font-family="Helvetica-Light,Helvetica" font-size="41.0" fill="#000000" transform="matrix(1.00, 0.00, -0.00, -1.00, 384.0, 545.4)">o</text><text xml:space="preserve" font-family="Helvetica-Light,Helvetica" font-size="41.0" fill="#000000" transform="matrix(1.00, 0.00, -0.00, -1.00, 406.8, 545.4)">e</text><text xml:space="preserve" font-family="Helvetica-Light,Helvetica" font-size="41.0" fill="#000000" transform="matrix(1.00, 0.00, -0.00, -1.00, 429.6, 545.4)">s</text><text xml:space="preserve" font-family="Helvetica-Light,Helvetica" font-size="41.0" fill="#000000" transform="matrix(1.00, 0.00, -0.00, -1.00, 450.1, 545.4)">:</text><text xml:space="preserve" font-family="Helvetica-Light,Helvetica" font-size="24.0" fill="#000000" transform="matrix(1.00, 0.00, -0.00, -1.00, 79.0, 361.0)">•</text><text xml:space="preserve" font-family="Helvetica-Light,Helvetica" font-size="32.0" fill="#000000" transform="matrix(1.00, 0.00, -0.00, -1.00, 110.1, 358.4)">V</text><text xml:space="preserve" font-family="Helvetica-Light,Helvetica" font-size="32.0" fill="#000000" transform="matrix(1.00, 0.00, -0.00, -1.00, 127.9, 358.4)">e</text><text xml:space="preserve" font-family="Helvetica-Light,Helvetica" font-size="32.0" fill="#000000" transform="matrix(1.00, 0.00, -0.00, -1.00, 145.7, 358.4)">t</text><text xml:space="preserve" font-family="Helvetica-Light,Helvetica" font-size="32.0" fill="#000000" transform="matrix(1.00, 0.00, -0.00, -1.00, 154.6, 358.4)">e</text><text xml:space="preserve" font-family="Helvetica-Light,Helvetica" font-size="32.0" fill="#000000" transform="matrix(1.00, 0.00, -0.00, -1.00, 172.4, 358.4)">r</text><text xml:space="preserve" font-family="Helvetica-Light,Helvetica" font-size="32.0" fill="#000000" transform="matrix(1.00, 0.00, -0.00, -1.00, 183.0, 358.4)">i</text><text xml:space="preserve" font-family="Helvetica-Light,Helvetica" font-size="32.0" fill="#000000" transform="matrix(1.00, 0.00, -0.00, -1.00, 190.1, 358.4)">n</text><text xml:space="preserve" font-family="Helvetica-Light,Helvetica" font-size="32.0" fill="#000000" transform="matrix(1.00, 0.00, -0.00, -1.00, 207.9, 358.4)">a</text><text xml:space="preserve" font-family="Helvetica-Light,Helvetica" font-size="32.0" fill="#000000" transform="matrix(1.00, 0.00, -0.00, -1.00, 225.7, 358.4)">r</text><text xml:space="preserve" font-family="Helvetica-Light,Helvetica" font-size="32.0" fill="#000000" transform="matrix(1.00, 0.00, -0.00, -1.00, 237.0, 358.4)">y</text><text xml:space="preserve" font-family="Helvetica-Light,Helvetica" font-size="32.0" fill="#000000" transform="matrix(1.00, 0.00, -0.00, -1.00, 253.0, 358.4)"> </text><text xml:space="preserve" font-family="Helvetica-Light,Helvetica" font-size="32.0" fill="#000000" transform="matrix(1.00, 0.00, -0.00, -1.00, 261.9, 358.4)">t</text><text xml:space="preserve" font-family="Helvetica-Light,Helvetica" font-size="32.0" fill="#000000" transform="matrix(1.00, 0.00, -0.00, -1.00, 270.8, 358.4)">e</text><text xml:space="preserve" font-family="Helvetica-Light,Helvetica" font-size="32.0" fill="#000000" transform="matrix(1.00, 0.00, -0.00, -1.00, 288.5, 358.4)">s</text><text xml:space="preserve" font-family="Helvetica-Light,Helvetica" font-size="32.0" fill="#000000" transform="matrix(1.00, 0.00, -0.00, -1.00, 304.5, 358.4)">t</text><text xml:space="preserve" font-family="Helvetica-Light,Helvetica" font-size="32.0" fill="#000000" transform="matrix(1.00, 0.00, -0.00, -1.00, 313.4, 358.4)">i</text><text xml:space="preserve" font-family="Helvetica-Light,Helvetica" font-size="32.0" fill="#000000" transform="matrix(1.00, 0.00, -0.00, -1.00, 320.5, 358.4)">n</text><text xml:space="preserve" font-family="Helvetica-Light,Helvetica" font-size="32.0" fill="#000000" transform="matrix(1.00, 0.00, -0.00, -1.00, 338.3, 358.4)">g</text><text xml:space="preserve" font-family="Helvetica-Light,Helvetica" font-size="32.0" fill="#000000" transform="matrix(1.00, 0.00, -0.00, -1.00, 357.9, 358.4)"> </text><text xml:space="preserve" font-family="Helvetica-Light,Helvetica" font-size="24.0" fill="#000000" transform="matrix(1.00, 0.00, -0.00, -1.00, 79.0, 323.0)">•</text><text xml:space="preserve" font-family="Helvetica-Light,Helvetica" font-size="32.0" fill="#000000" transform="matrix(1.00, 0.00, -0.00, -1.00, 110.1, 320.4)">W</text><text xml:space="preserve" font-family="Helvetica-Light,Helvetica" font-size="32.0" fill="#000000" transform="matrix(1.00, 0.00, -0.00, -1.00, 137.4, 320.4)">a</text><text xml:space="preserve" font-family="Helvetica-Light,Helvetica" font-size="32.0" fill="#000000" transform="matrix(1.00, 0.00, -0.00, -1.00, 155.2, 320.4)">t</text><text xml:space="preserve" font-family="Helvetica-Light,Helvetica" font-size="32.0" fill="#000000" transform="matrix(1.00, 0.00, -0.00, -1.00, 164.1, 320.4)">e</text><text xml:space="preserve" font-family="Helvetica-Light,Helvetica" font-size="32.0" fill="#000000" transform="matrix(1.00, 0.00, -0.00, -1.00, 181.9, 320.4)">r</text><text xml:space="preserve" font-family="Helvetica-Light,Helvetica" font-size="32.0" fill="#000000" transform="matrix(1.00, 0.00, -0.00, -1.00, 192.5, 320.4)"> </text><text xml:space="preserve" font-family="Helvetica-Light,Helvetica" font-size="32.0" fill="#000000" transform="matrix(1.00, 0.00, -0.00, -1.00, 201.4, 320.4)">t</text><text xml:space="preserve" font-family="Helvetica-Light,Helvetica" font-size="32.0" fill="#000000" transform="matrix(1.00, 0.00, -0.00, -1.00, 210.3, 320.4)">e</text><text xml:space="preserve" font-family="Helvetica-Light,Helvetica" font-size="32.0" fill="#000000" transform="matrix(1.00, 0.00, -0.00, -1.00, 228.1, 320.4)">s</text><text xml:space="preserve" font-family="Helvetica-Light,Helvetica" font-size="32.0" fill="#000000" transform="matrix(1.00, 0.00, -0.00, -1.00, 244.1, 320.4)">t</text><text xml:space="preserve" font-family="Helvetica-Light,Helvetica" font-size="32.0" fill="#000000" transform="matrix(1.00, 0.00, -0.00, -1.00, 253.0, 320.4)">i</text><text xml:space="preserve" font-family="Helvetica-Light,Helvetica" font-size="32.0" fill="#000000" transform="matrix(1.00, 0.00, -0.00, -1.00, 260.1, 320.4)">n</text><text xml:space="preserve" font-family="Helvetica-Light,Helvetica" font-size="32.0" fill="#000000" transform="matrix(1.00, 0.00, -0.00, -1.00, 277.9, 320.4)">g</text><text xml:space="preserve" font-family="Helvetica-Light,Helvetica" font-size="32.0" fill="#000000" transform="matrix(1.00, 0.00, -0.00, -1.00, 297.4, 320.4)"> </text><text xml:space="preserve" font-family="Helvetica-Light,Helvetica" font-size="24.0" fill="#000000" transform="matrix(1.00, 0.00, -0.00, -1.00, 79.0, 285.0)">•</text><text xml:space="preserve" font-family="Helvetica-Light,Helvetica" font-size="32.0" fill="#000000" transform="matrix(1.00, 0.00, -0.00, -1.00, 110.1, 282.4)">M</text><text xml:space="preserve" font-family="Helvetica-Light,Helvetica" font-size="32.0" fill="#000000" transform="matrix(1.00, 0.00, -0.00, -1.00, 136.8, 282.4)">i</text><text xml:space="preserve" font-family="Helvetica-Light,Helvetica" font-size="32.0" fill="#000000" transform="matrix(1.00, 0.00, -0.00, -1.00, 143.9, 282.4)">l</text><text xml:space="preserve" font-family="Helvetica-Light,Helvetica" font-size="32.0" fill="#000000" transform="matrix(1.00, 0.00, -0.00, -1.00, 151.0, 282.4)">k</text><text xml:space="preserve" font-family="Helvetica-Light,Helvetica" font-size="32.0" fill="#000000" transform="matrix(1.00, 0.00, -0.00, -1.00, 167.0, 282.4)"> </text><text xml:space="preserve" font-family="Helvetica-Light,Helvetica" font-size="32.0" fill="#000000" transform="matrix(1.00, 0.00, -0.00, -1.00, 175.9, 282.4)">t</text><text xml:space="preserve" font-family="Helvetica-Light,Helvetica" font-size="32.0" fill="#000000" transform="matrix(1.00, 0.00, -0.00, -1.00, 184.8, 282.4)">e</text><text xml:space="preserve" font-family="Helvetica-Light,Helvetica" font-size="32.0" fill="#000000" transform="matrix(1.00, 0.00, -0.00, -1.00, 202.6, 282.4)">s</text><text xml:space="preserve" font-family="Helvetica-Light,Helvetica" font-size="32.0" fill="#000000" transform="matrix(1.00, 0.00, -0.00, -1.00, 218.6, 282.4)">t</text><text xml:space="preserve" font-family="Helvetica-Light,Helvetica" font-size="32.0" fill="#000000" transform="matrix(1.00, 0.00, -0.00, -1.00, 227.5, 282.4)">i</text><text xml:space="preserve" font-family="Helvetica-Light,Helvetica" font-size="32.0" fill="#000000" transform="matrix(1.00, 0.00, -0.00, -1.00, 234.6, 282.4)">n</text><text xml:space="preserve" font-family="Helvetica-Light,Helvetica" font-size="32.0" fill="#000000" transform="matrix(1.00, 0.00, -0.00, -1.00, 252.4, 282.4)">g</text><text xml:space="preserve" font-family="Helvetica-Light,Helvetica" font-size="32.0" fill="#000000" transform="matrix(1.00, 0.00, -0.00, -1.00, 271.9, 282.4)"> </text><text xml:space="preserve" font-family="Helvetica-Light,Helvetica" font-size="24.0" fill="#000000" transform="matrix(1.00, 0.00, -0.00, -1.00, 79.0, 247.0)">•</text><text xml:space="preserve" font-family="Helvetica-Light,Helvetica" font-size="32.0" fill="#000000" transform="matrix(1.00, 0.00, -0.00, -1.00, 110.1, 244.4)">M</text><text xml:space="preserve" font-family="Helvetica-Light,Helvetica" font-size="32.0" fill="#000000" transform="matrix(1.00, 0.00, -0.00, -1.00, 136.8, 244.4)">e</text><text xml:space="preserve" font-family="Helvetica-Light,Helvetica" font-size="32.0" fill="#000000" transform="matrix(1.00, 0.00, -0.00, -1.00, 154.6, 244.4)">d</text><text xml:space="preserve" font-family="Helvetica-Light,Helvetica" font-size="32.0" fill="#000000" transform="matrix(1.00, 0.00, -0.00, -1.00, 174.1, 244.4)">i</text><text xml:space="preserve" font-family="Helvetica-Light,Helvetica" font-size="32.0" fill="#000000" transform="matrix(1.00, 0.00, -0.00, -1.00, 181.2, 244.4)">c</text><text xml:space="preserve" font-family="Helvetica-Light,Helvetica" font-size="32.0" fill="#000000" transform="matrix(1.00, 0.00, -0.00, -1.00, 199.0, 244.4)">a</text><text xml:space="preserve" font-family="Helvetica-Light,Helvetica" font-size="32.0" fill="#000000" transform="matrix(1.00, 0.00, -0.00, -1.00, 216.8, 244.4)">l</text><text xml:space="preserve" font-family="Helvetica-Light,Helvetica" font-size="32.0" fill="#000000" transform="matrix(1.00, 0.00, -0.00, -1.00, 223.9, 244.4)"> </text><text xml:space="preserve" font-family="Helvetica-Light,Helvetica" font-size="32.0" fill="#000000" transform="matrix(1.00, 0.00, -0.00, -1.00, 232.8, 244.4)">d</text><text xml:space="preserve" font-family="Helvetica-Light,Helvetica" font-size="32.0" fill="#000000" transform="matrix(1.00, 0.00, -0.00, -1.00, 252.4, 244.4)">e</text><text xml:space="preserve" font-family="Helvetica-Light,Helvetica" font-size="32.0" fill="#000000" transform="matrix(1.00, 0.00, -0.00, -1.00, 270.1, 244.4)">v</text><text xml:space="preserve" font-family="Helvetica-Light,Helvetica" font-size="32.0" fill="#000000" transform="matrix(1.00, 0.00, -0.00, -1.00, 286.1, 244.4)">i</text><text xml:space="preserve" font-family="Helvetica-Light,Helvetica" font-size="32.0" fill="#000000" transform="matrix(1.00, 0.00, -0.00, -1.00, 293.2, 244.4)">c</text><text xml:space="preserve" font-family="Helvetica-Light,Helvetica" font-size="32.0" fill="#000000" transform="matrix(1.00, 0.00, -0.00, -1.00, 311.0, 244.4)">e</text><text xml:space="preserve" font-family="Helvetica-Light,Helvetica" font-size="32.0" fill="#000000" transform="matrix(1.00, 0.00, -0.00, -1.00, 328.8, 244.4)">s</text></g></svg>